<?xml version="1.0" standalone="no"?>
<!DOCTYPE svg PUBLIC "-//W3C//DTD SVG 20010904//EN"
 "http://www.w3.org/TR/2001/REC-SVG-20010904/DTD/svg10.dtd">
<svg version="1.0" xmlns="http://www.w3.org/2000/svg"
 width="626.000000pt" height="626.000000pt" viewBox="0 0 626.000000 626.000000"
 preserveAspectRatio="xMidYMid meet">

<g transform="translate(0.000000,626.000000) scale(0.100000,-0.100000)"
fill="#000000" stroke="none">
<path d="M0 3130 l0 -3130 3130 0 3130 0 0 3130 0 3130 -3130 0 -3130 0 0
-3130z m2270 2676 l0 -115 43 24 c51 30 57 30 57 5 0 -13 -21 -31 -69 -60 -38
-22 -72 -40 -75 -40 -3 0 -6 63 -6 140 0 122 2 140 18 149 9 6 20 11 25 11 4
0 7 -51 7 -114z m-150 20 c0 -2 18 -53 39 -114 l40 -111 -25 -16 c-24 -16 -25
-15 -35 15 -13 36 -13 36 -54 10 -24 -15 -36 -32 -44 -65 -9 -37 -33 -65 -54
-65 -2 0 14 73 35 162 38 156 52 187 86 188 6 0 12 -2 12 -4z m-160 -226 c0
-127 -2 -140 -19 -150 -11 -5 -22 -10 -25 -10 -3 0 -6 63 -6 140 0 122 2 140
18 149 9 6 20 11 25 11 4 0 7 -63 7 -140z m-90 63 c-1 -19 -21 -37 -51 -47
-53 -17 -80 -68 -77 -141 3 -54 5 -60 27 -63 16 -3 34 7 57 29 27 26 34 29 39
16 14 -35 -65 -107 -118 -107 -15 0 -32 9 -41 22 -22 31 -21 132 3 183 25 56
93 115 131 115 17 0 30 -3 30 -7z m790 -47 c0 -17 -10 -30 -35 -45 l-35 -20 0
-118 c0 -105 -2 -119 -19 -130 -10 -7 -22 -9 -25 -6 -3 4 -6 55 -6 115 l0 109
-30 -16 c-37 -19 -40 -19 -40 5 0 14 26 35 93 74 50 31 93 55 95 56 1 0 2 -11
2 -24z m-1020 -199 c0 -140 -1 -144 -22 -154 -21 -9 -27 -4 -70 61 l-48 71 0
-101 c0 -103 -4 -114 -41 -114 -5 0 -9 60 -9 135 0 133 0 135 25 151 14 9 28
15 30 12 2 -2 25 -35 50 -73 l45 -69 -6 96 c-6 92 -5 96 17 112 13 9 25 16 26
16 2 0 3 -65 3 -143z m798 -48 c-3 -132 -4 -143 -24 -156 -21 -13 -24 -10 -68
58 l-46 73 0 -101 c0 -102 -4 -113 -41 -113 -5 0 -9 60 -9 135 0 134 0 135 26
151 22 15 27 15 35 3 5 -8 26 -40 46 -71 20 -32 37 -58 37 -58 1 0 0 43 -2 96
-4 84 -2 97 14 109 11 8 22 15 27 15 4 0 6 -64 5 -141z m-1044 -95 c21 -63 36
-117 34 -118 -1 -2 -13 -9 -26 -15 -20 -11 -23 -9 -28 19 -4 16 -9 30 -11 30
-3 0 -22 -10 -43 -21 -32 -18 -39 -28 -44 -63 -4 -26 -14 -46 -27 -54 -12 -8
-23 -12 -25 -9 -2 2 12 73 32 158 36 150 53 189 88 189 6 0 29 -52 50 -116z
m816 77 c0 -13 -18 -30 -55 -51 -47 -27 -55 -36 -55 -61 0 -34 5 -35 45 -9 38
25 45 25 45 -3 0 -16 -12 -28 -45 -46 -42 -22 -45 -27 -45 -63 l0 -40 38 23
c20 12 41 26 47 31 16 14 25 9 25 -14 0 -18 -17 -33 -74 -65 -40 -24 -76 -43
-79 -43 -4 0 -7 63 -7 139 l0 139 68 40 c77 46 92 50 92 23z m-1020 -195 c0
-138 -1 -145 -21 -151 -26 -9 -37 2 -83 79 l-36 60 0 -107 c0 -59 -2 -107 -4
-107 -2 0 -11 -3 -20 -6 -14 -5 -16 10 -16 135 0 132 1 141 21 152 25 13 25
13 78 -70 l41 -64 0 101 c0 86 3 103 18 111 9 6 18 11 20 11 1 0 2 -65 2 -144z
m810 -42 c0 -119 -2 -139 -17 -150 -10 -7 -21 -14 -25 -14 -5 0 -8 35 -9 78
l-1 77 -21 -77 c-20 -72 -40 -108 -52 -97 -2 3 -16 34 -29 70 l-25 64 -1 -97
c0 -87 -2 -98 -20 -108 -20 -10 -20 -8 -20 133 l0 144 25 11 c28 13 26 16 64
-83 l19 -50 10 37 c5 20 18 68 28 107 17 65 33 87 67 90 4 1 7 -60 7 -135z
m-1050 -94 c0 -127 -2 -140 -19 -150 -11 -5 -22 -10 -25 -10 -3 0 -6 61 -6
136 0 119 2 139 18 150 9 7 20 14 25 14 4 0 7 -63 7 -140z m-80 70 c0 -14 -17
-30 -55 -51 -50 -28 -55 -34 -55 -65 0 -39 4 -41 45 -14 39 26 47 25 43 -2 -2
-15 -18 -31 -45 -46 l-43 -23 0 -59 c0 -48 -4 -61 -19 -70 -19 -10 -20 -5 -23
122 -2 73 1 139 6 146 9 13 125 82 139 82 4 0 7 -9 7 -20z m860 -12 c0 -17
-13 -30 -50 -51 -42 -24 -50 -33 -50 -58 0 -34 5 -35 48 -9 40 25 42 25 42 0
0 -14 -15 -30 -45 -48 -41 -24 -45 -30 -45 -65 l0 -39 44 26 c53 31 66 32 66
8 0 -12 -25 -32 -74 -60 -40 -23 -76 -42 -80 -42 -3 0 -6 62 -6 139 l0 139 68
40 c80 48 82 48 82 20z m3310 -131 l105 -63 78 -134 77 -135 -2 -119 c-2 -82
-7 -121 -15 -123 -9 -3 -12 27 -12 119 l1 122 -73 127 c-69 119 -77 129 -130
158 -31 17 -60 27 -64 23 -5 -4 -5 -2 -2 4 8 13 -20 27 -34 18 -5 -3 -8 0 -7
7 2 7 -12 18 -29 24 -26 9 -30 14 -21 23 7 7 14 12 18 12 3 -1 52 -29 110 -63z
m-3510 7 c0 -18 -23 -44 -40 -44 -25 0 -75 -43 -89 -78 -17 -41 -10 -122 11
-136 26 -16 72 22 76 63 3 30 2 32 -17 22 -28 -15 -33 -14 -29 9 2 12 22 32
46 46 l42 25 0 -68 c-1 -72 -5 -82 -58 -126 -44 -36 -95 -37 -118 -2 -26 40
-16 141 22 201 34 56 85 94 125 94 16 0 29 -3 29 -6z m3445 -111 c81 -46 82
-47 143 -153 l62 -107 0 -90 c0 -100 0 -99 -80 -146 l-46 -25 -86 49 -87 50
-60 105 -61 106 0 97 0 96 58 32 c31 18 61 33 66 33 6 0 46 -21 91 -47z
m-3684 -138 l38 -110 -22 -19 c-22 -18 -22 -18 -34 13 l-13 31 -39 -19 c-33
-18 -39 -26 -45 -63 -4 -28 -14 -48 -27 -56 -12 -8 -23 -11 -26 -9 -2 3 12 74
32 159 27 111 43 158 57 171 12 10 26 16 31 14 5 -1 27 -52 48 -112z m1204 15
l35 22 36 -23 c33 -20 36 -25 32 -60 -3 -31 1 -40 19 -50 18 -10 28 -8 58 10
l36 21 35 -23 c31 -19 34 -26 32 -60 -2 -29 3 -41 20 -53 20 -14 24 -14 48 5
34 26 48 26 86 0 26 -19 29 -27 26 -60 -3 -32 0 -40 20 -49 19 -8 29 -6 53 11
30 21 31 21 65 3 30 -17 34 -23 34 -60 0 -39 3 -44 43 -67 l42 -25 -3 -584
c-2 -320 -7 -586 -11 -591 -4 -4 -115 55 -247 131 l-239 138 -6 54 c-4 35 -6
43 -7 22 -6 -122 -107 -339 -192 -413 -125 -109 -177 -142 -322 -200 -129 -51
-158 -59 -258 -69 -95 -9 -130 -8 -223 6 -104 15 -115 15 -175 -1 -35 -10 -66
-24 -69 -32 -3 -8 -21 -25 -41 -38 l-35 -24 -46 27 c-61 33 -111 118 -111 186
0 39 4 47 33 67 17 12 47 36 65 53 29 27 32 35 32 89 0 73 35 222 60 258 19
26 19 27 -16 165 -19 77 -37 147 -40 157 -8 25 11 21 59 -14 23 -17 66 -48 96
-70 47 -35 56 -38 70 -26 108 93 167 135 210 150 37 13 58 28 74 52 12 19 39
44 61 56 l38 21 41 -22 c40 -23 43 -23 156 -11 84 9 124 10 144 2 16 -6 33
-11 38 -11 12 0 12 747 0 754 -4 3 -9 41 -10 85 -2 77 -1 80 25 94 25 13 31
12 61 -5 33 -20 33 -20 68 2z m-1405 -128 c0 -138 -6 -162 -37 -162 -7 0 -33
30 -58 67 l-45 68 0 -102 c0 -100 -4 -113 -38 -113 -4 0 -6 62 -4 137 3 113 6
140 20 151 9 6 19 12 23 12 4 0 28 -32 53 -72 l46 -72 0 100 c0 94 8 124 32
124 4 0 8 -62 8 -138z m858 -46 c36 -23 38 -26 36 -74 -3 -62 -45 -134 -99
-166 l-38 -23 -43 24 c-42 24 -44 26 -44 73 0 60 38 131 88 165 45 31 53 31
100 1z m-1105 -98 l37 -113 -22 -19 c-23 -18 -23 -18 -35 13 l-13 31 -39 -19
c-32 -17 -39 -26 -45 -60 -4 -25 -14 -46 -28 -55 -12 -9 -23 -14 -25 -12 -2 2
12 73 32 157 36 151 54 189 89 189 6 0 28 -51 49 -112z m-214 -264 c-23 -28
-29 -12 -30 74 l-1 87 -22 -86 c-13 -47 -26 -91 -30 -98 -15 -24 -32 -9 -53
47 l-21 57 -1 -87 c-1 -76 -4 -89 -20 -98 -11 -5 -22 -10 -25 -10 -3 0 -6 63
-6 140 l0 139 29 16 29 15 28 -76 27 -76 28 107 c15 59 29 108 31 109 2 2 12
8 23 14 19 10 20 7 23 -125 2 -91 -1 -140 -9 -149z m4255 172 c22 -14 24 -19
14 -36 -7 -10 -14 -17 -17 -15 -2 3 2 11 9 20 7 8 9 15 4 15 -5 0 -27 -28 -48
-62 -33 -54 -35 -60 -15 -46 13 8 24 23 24 33 0 10 7 20 15 23 12 4 12 2 3 -8
-9 -10 -7 -22 11 -54 19 -32 24 -56 23 -106 0 -54 -1 -57 -4 -17 -2 27 -7 47
-11 45 -66 -33 -62 -27 -62 -97 l0 -66 -46 -28 -45 -27 -63 37 c-42 25 -70 50
-82 73 -19 34 -21 35 -86 38 l-68 3 0 -33 c0 -32 -5 -37 -89 -86 l-89 -53 -58
35 c-39 24 -68 50 -85 78 -25 43 -26 43 -87 46 -61 3 -62 2 -62 -23 0 -20 -13
-34 -67 -68 -116 -74 -106 -72 -174 -34 -50 29 -67 45 -101 103 -36 60 -42 79
-46 140 l-4 72 88 53 c49 28 94 52 99 52 6 0 36 -16 67 -36 38 -24 64 -50 78
-77 l20 -40 65 0 c64 0 65 0 65 28 0 25 11 34 89 80 l90 52 59 -35 c41 -24 68
-48 85 -77 l25 -43 64 3 c64 4 64 4 60 32 -4 26 3 32 89 83 85 51 94 55 113
41 29 -20 33 -19 62 28 l27 42 18 -36 c10 -19 29 -43 43 -52z m-2770 -157 c34
-20 36 -24 36 -75 0 -71 -42 -143 -99 -168 -37 -17 -39 -17 -80 3 -40 21 -41
22 -41 74 0 62 41 136 93 167 40 25 48 25 91 -1z m1191 -209 c3 -6 -1 -7 -9
-4 -18 7 -21 14 -7 14 6 0 13 -4 16 -10z m-57 -14 c-7 -8 -15 -12 -17 -11 -5
6 10 25 20 25 5 0 4 -6 -3 -14z m112 -16 c0 -5 -7 -7 -15 -4 -8 4 -15 8 -15
10 0 2 7 4 15 4 8 0 15 -4 15 -10z m1389 -96 l149 -86 -1 -176 -1 -177 -3 163
c-2 89 -6 162 -9 162 -3 0 -14 -5 -25 -10 -18 -10 -19 -26 -19 -435 0 -277 3
-425 10 -425 6 0 10 5 10 11 0 6 6 9 14 6 10 -4 16 3 19 21 4 26 4 26 6 -3 1
-25 -5 -34 -33 -49 -19 -10 -42 -16 -51 -12 -9 3 -79 42 -155 87 l-140 81 0
442 0 442 38 22 c20 12 38 22 39 22 1 0 70 -39 152 -86z m-944 -21 l153 -88 1
-160 2 -161 -40 -22 -40 -23 -153 88 -153 88 -3 157 -3 157 38 25 c21 15 39
26 41 26 2 0 73 -39 157 -87z m472 0 l153 -88 0 -301 0 -301 -39 -18 -40 -17
-148 85 -148 84 -3 301 -2 300 32 20 c18 11 35 21 38 21 2 1 73 -38 157 -86z
m-976 59 c-7 -2 -18 1 -23 6 -8 8 -4 9 13 5 13 -4 18 -8 10 -11z m1889 -32
l40 -20 2 -98 c2 -53 3 -125 3 -160 1 -41 6 -66 14 -71 9 -6 12 -26 10 -63
l-4 -55 46 29 c62 38 132 39 195 2 42 -25 44 -28 44 -73 0 -26 -5 -52 -11 -58
-11 -11 -19 -303 -9 -303 3 1 16 7 30 15 41 24 116 19 171 -11 46 -26 48 -28
55 -83 4 -33 2 -79 -5 -113 -6 -32 -14 -86 -18 -121 l-6 -64 84 5 c73 4 89 1
122 -18 31 -18 37 -27 37 -55 0 -19 5 -37 11 -40 11 -8 10 -137 -2 -171 -22
-64 -155 -85 -235 -38 -40 24 -44 29 -44 65 0 37 -12 51 -25 29 -3 -5 -35 -10
-71 -10 -49 0 -75 6 -104 23 -39 21 -40 24 -40 76 l0 53 -25 -16 c-40 -26
-137 -22 -185 9 -22 14 -40 31 -40 39 0 8 -7 16 -15 20 -9 3 -15 18 -15 38 l0
33 -75 -3 c-63 -4 -79 -1 -110 18 -19 12 -35 27 -35 33 0 7 -9 18 -20 25 -18
11 -20 22 -19 120 1 59 1 130 0 157 -2 51 19 212 30 230 4 6 5 19 3 30 -14
103 -23 259 -24 402 l0 173 38 19 c51 28 149 28 202 1z m-310 -144 c0 -3 -4
-8 -10 -11 -5 -3 -10 -1 -10 4 0 6 5 11 10 11 6 0 10 -2 10 -4z m-1400 -151
c0 -8 -11 -22 -25 -33 -34 -27 -34 -62 0 -62 17 0 28 7 34 23 9 21 9 21 16 -8
4 -16 14 -54 22 -84 15 -54 15 -55 -7 -73 -28 -23 -67 -23 -78 0 -5 9 -17 51
-27 92 -9 41 -20 87 -25 101 -9 32 -2 45 30 57 30 11 60 4 60 -13z m339 -350
l78 -45 39 21 39 22 39 -27 c21 -14 43 -26 47 -26 5 0 9 -20 9 -44 0 -36 4
-47 27 -61 26 -18 28 -18 67 3 l39 22 49 -31 c45 -29 48 -34 48 -74 0 -38 3
-44 31 -55 27 -11 35 -11 66 7 l36 21 48 -31 c46 -28 49 -33 49 -71 0 -34 5
-44 27 -58 25 -15 29 -15 69 5 l42 20 46 -29 c42 -27 45 -32 46 -71 0 -37 4
-45 30 -58 29 -15 33 -15 66 5 l34 22 48 -29 c42 -27 47 -34 52 -73 4 -35 11
-48 32 -59 25 -14 30 -14 65 6 l39 22 47 -31 c43 -28 47 -33 47 -72 l0 -41 85
-48 c76 -43 85 -51 85 -77 0 -20 6 -31 20 -35 12 -4 20 -15 20 -30 0 -20 -47
-50 -342 -220 -189 -109 -356 -206 -373 -216 -29 -17 -31 -17 -75 6 l-44 22
-20 -26 c-108 -143 -113 -147 -295 -252 l-176 -102 -45 24 c-25 14 -250 144
-500 288 -250 145 -607 351 -793 458 -190 110 -342 204 -349 216 -9 18 -7 23
11 35 11 8 21 25 21 38 0 13 11 30 28 42 44 31 1023 594 1026 590 2 -1 29
-100 61 -218 32 -118 60 -223 62 -232 3 -10 9 -16 13 -13 5 3 6 -3 3 -14 -6
-25 11 -34 53 -27 24 5 34 12 34 25 0 15 -104 408 -136 514 -5 16 -8 17 -22 4
-41 -36 -92 -23 -92 23 0 14 8 18 35 18 20 0 42 5 49 11 11 9 15 7 19 -9 3
-11 9 -20 14 -20 4 0 37 18 73 40 36 21 66 39 68 40 2 0 38 -20 81 -45z m-292
-127 c-3 -8 -6 -5 -6 6 -1 11 2 17 5 13 3 -3 4 -12 1 -19z m20 -70 c-3 -8 -6
-5 -6 6 -1 11 2 17 5 13 3 -3 4 -12 1 -19z m32 -108 c0 -9 -4 -8 -9 5 -5 11
-9 27 -9 35 0 9 4 8 9 -5 5 -11 9 -27 9 -35z m-1039 -70 l0 -70 -44 0 c-27 0
-52 7 -66 18 l-22 18 53 45 c30 24 56 47 57 52 2 4 8 7 13 7 5 0 9 -31 9 -70z
m-1241 -220 l460 -265 1 -97 0 -98 54 0 c39 0 66 -7 100 -26 41 -23 46 -30 46
-60 0 -19 4 -34 9 -34 14 0 22 -176 9 -224 -16 -62 -68 -89 -160 -84 l-66 3
-5 -48 c-3 -31 -11 -53 -23 -62 -16 -12 -16 -14 -3 -15 9 0 21 11 27 25 10 22
18 25 65 25 32 0 61 -6 75 -16 20 -14 25 -14 40 -2 9 8 58 38 107 66 l90 51
151 8 c118 6 154 5 163 -5 7 -7 16 -10 21 -7 4 3 11 -2 14 -11 4 -9 13 -14 22
-10 8 3 12 2 9 -4 -5 -9 1 -12 21 -9 3 0 12 -8 21 -18 8 -10 12 -12 8 -5 -10
20 2 14 34 -17 16 -16 34 -30 40 -32 7 -3 8 -109 4 -326 l-6 -321 -41 -23
c-23 -12 -70 -40 -105 -61 l-63 -38 -143 0 c-126 0 -149 3 -182 21 -21 11 -30
14 -20 7 45 -32 59 -48 54 -62 -5 -14 -10 -13 -36 1 -16 10 -28 20 -26 23 2 3
-5 6 -16 6 -10 0 -19 -1 -19 -2 0 -1 25 -16 55 -33 54 -31 56 -31 201 -31
l147 0 94 55 c52 30 98 55 103 55 4 0 7 -8 5 -17 -2 -10 -4 -41 -4 -68 l-1
-51 -105 -62 -106 -62 -141 0 -141 0 -63 35 c-53 30 -66 34 -82 24 -16 -10
-30 -5 -90 30 -39 22 -73 41 -76 41 -4 0 -24 11 -46 25 l-40 25 0 117 0 116
71 123 c39 67 79 130 90 140 13 12 19 30 19 59 0 40 -1 41 -29 37 -17 -2 -39
3 -54 13 -24 15 -28 15 -66 -4 -55 -29 -147 -29 -195 0 -34 20 -36 24 -36 75
0 39 4 56 15 60 10 4 -2 14 -35 31 -28 14 -50 31 -50 39 0 7 -9 18 -20 24 -16
9 -20 21 -20 61 l0 50 -55 -36 c-30 -19 -55 -31 -55 -27 0 13 -79 54 -90 47
-6 -4 -9 -1 -8 7 4 18 -14 13 -77 -23 -30 -17 -53 -35 -50 -39 3 -5 0 -12 -6
-16 -8 -5 -9 -3 -5 5 6 8 2 11 -10 9 -14 -2 -20 4 -22 22 -2 19 5 30 28 44 18
10 43 21 56 25 20 5 -8 24 -174 119 -208 119 -348 200 -498 288 l-92 53 -1
189 -2 189 218 126 c120 70 226 126 235 124 9 -1 224 -121 477 -267z m2301
225 c0 -5 -5 -3 -10 5 -5 8 -10 20 -10 25 0 6 5 3 10 -5 5 -8 10 -19 10 -25z
m7 -37 c-3 -8 -6 -5 -6 6 -1 11 2 17 5 13 3 -3 4 -12 1 -19z m10 -40 c-3 -8
-6 -5 -6 6 -1 11 2 17 5 13 3 -3 4 -12 1 -19z m20 -80 c-3 -8 -6 -5 -6 6 -1
11 2 17 5 13 3 -3 4 -12 1 -19z m-1575 -118 l3 -70 -43 0 c-23 0 -53 7 -65 15
-19 12 -21 21 -19 64 4 48 5 50 35 54 90 11 85 15 89 -63z m627 -428 c30 -10
56 -23 59 -31 3 -9 -2 -11 -17 -6 -17 5 -24 1 -34 -24 l-13 -31 -42 43 c-67
68 -55 81 47 49z m141 -72 c0 -5 -2 -10 -4 -10 -3 0 -8 5 -11 10 -3 6 -1 10 4
10 6 0 11 -4 11 -10z m30 -14 c0 -3 -4 -8 -10 -11 -5 -3 -10 -1 -10 4 0 6 5
11 10 11 6 0 10 -2 10 -4z m36 -28 c3 -4 -1 -5 -10 -4 -8 1 -18 5 -22 8 -3 4
1 5 10 4 8 -1 18 -5 22 -8z m408 -199 c108 -63 196 -119 196 -125 0 -15 -32
-28 -39 -16 -7 11 -72 45 -75 40 -2 -2 -10 -14 -19 -28 -11 -15 -17 -19 -17
-9 0 8 7 25 16 37 14 20 14 22 -1 22 -9 0 -21 5 -28 11 -22 19 -252 152 -263
152 -6 0 -16 8 -21 16 -9 14 -5 16 22 15 21 -1 101 -42 229 -115z m-969 1 c3
-6 -1 -7 -9 -4 -18 7 -21 14 -7 14 6 0 13 -4 16 -10z m15 -32 c0 -4 -4 -8 -9
-8 -6 0 -12 4 -15 8 -3 5 1 9 9 9 8 0 15 -4 15 -9z m55 -8 c3 -6 -1 -7 -9 -4
-18 7 -21 14 -7 14 6 0 13 -4 16 -10z m-1210 -39 c-3 -6 -14 -11 -23 -11 -15
1 -15 2 2 15 21 16 32 13 21 -4z m60 -11 c-3 -5 10 -16 28 -24 35 -14 57 -36
38 -36 -6 0 -11 5 -11 10 0 6 -6 10 -12 10 -7 0 -31 12 -53 26 -26 16 -32 23
-16 18 17 -4 21 -3 16 6 -5 9 -4 11 4 6 6 -4 9 -11 6 -16z m3864 -272 c278
-160 510 -295 515 -299 8 -7 -176 -260 -194 -267 -7 -3 -874 492 -1013 577
l-27 17 100 132 c56 73 104 132 107 132 3 0 234 -131 512 -292z m-3951 238
c15 -9 16 -26 1 -26 -5 0 -7 5 -4 10 3 6 -3 10 -14 10 -11 0 -22 4 -25 8 -6
10 25 9 42 -2z m212 -61 c0 -52 -2 -57 -32 -75 -21 -12 -51 -20 -80 -20 -47 0
-48 0 -48 33 0 29 6 36 73 74 39 23 75 42 80 42 4 1 7 -24 7 -54z m2218 -18
c53 -53 58 -62 43 -86 -7 -10 -16 -11 -42 -3 -19 6 -54 16 -78 22 -43 11 -43
12 -37 48 4 20 7 44 8 52 1 8 14 16 28 17 18 1 39 -13 78 -50z m-932 -6 c0
-11 -4 -17 -8 -15 -4 3 -8 12 -8 20 0 8 4 14 8 14 4 0 8 -9 8 -19z m58 -34
c-8 -5 -18 -6 -21 -3 -4 3 -1 6 6 6 7 0 9 5 6 10 -4 6 -10 8 -15 5 -4 -3 -11
2 -14 11 -5 13 -1 12 24 -3 25 -14 27 -19 14 -26z m36 -29 c0 -6 -6 -5 -15 2
-8 7 -15 14 -15 16 0 2 7 1 15 -2 8 -4 15 -11 15 -16z m25 12 c3 -5 1 -10 -4
-10 -6 0 -11 5 -11 10 0 6 2 10 4 10 3 0 8 -4 11 -10z m89 -57 c36 -21 66 -40
66 -43 0 -3 -16 -14 -35 -24 -19 -10 -32 -23 -28 -29 3 -6 1 -7 -5 -3 -6 4
-21 2 -32 -4 -15 -8 -29 -6 -60 10 -33 17 -40 25 -40 51 0 29 37 79 58 79 6 0
40 -17 76 -37z m194 -10 c-10 -2 -28 -2 -40 0 -13 2 -5 4 17 4 22 1 32 -1 23
-4z m205 0 c-23 -2 -64 -2 -90 0 -26 2 -7 3 42 3 50 0 71 -1 48 -3z m-283 -18
c-7 -8 -20 -15 -29 -15 -11 1 -8 5 9 15 32 18 35 18 20 0z m1554 -149 l188
-109 -53 -33 c-30 -19 -60 -34 -67 -34 -17 0 -384 211 -377 218 11 11 110 70
116 69 3 -1 90 -51 193 -111z m-1624 100 c0 -2 -7 -7 -16 -10 -8 -3 -12 -2 -9
4 6 10 25 14 25 6z m437 -43 c67 -39 83 -53 83 -71 0 -23 -2 -22 -86 22 l-86
46 -127 0 c-70 0 -131 -4 -136 -9 -6 -6 -36 -24 -67 -41 -50 -26 -58 -28 -58
-13 0 12 30 35 83 65 l82 47 114 1 115 0 83 -47z m47 22 c11 -8 16 -15 10 -15
-5 0 -18 7 -28 15 -11 8 -16 15 -10 15 5 0 18 -7 28 -15z m101 -25 c3 -5 1
-10 -4 -10 -6 0 -11 5 -11 10 0 6 2 10 4 10 3 0 8 -4 11 -10z m-666 -49 c-1
-25 -3 -37 -6 -26 -2 11 -8 32 -12 46 -7 19 -5 26 5 26 10 0 14 -13 13 -46z
m616 39 c3 -6 -1 -7 -9 -4 -18 7 -21 14 -7 14 6 0 13 -4 16 -10z m52 -92 c-2
-18 -4 -6 -4 27 0 33 2 48 4 33 2 -15 2 -42 0 -60z m-217 62 c18 -12 2 -12
-25 0 -13 6 -15 9 -5 9 8 0 22 -4 30 -9z m68 -55 c-3 -3 -9 2 -12 12 -6 14 -5
15 5 6 7 -7 10 -15 7 -18z m-541 -47 c-2 -13 -4 -3 -4 22 0 25 2 35 4 23 2
-13 2 -33 0 -45z m577 30 c-5 -8 -2 -9 11 -4 14 5 15 3 7 -6 -6 -7 -11 -16
-11 -20 -1 -5 -4 -7 -8 -5 -14 4 -10 47 3 47 3 0 2 -5 -2 -12z m-441 -15 c3
-5 -8 -9 -24 -10 -16 -1 -29 2 -29 7 0 12 47 13 53 3z m487 -35 c0 -18 -2 -20
-9 -8 -6 8 -7 18 -5 22 9 14 14 9 14 -14z m61 -1 c-10 -9 -11 -8 -5 6 3 10 9
15 12 12 3 -3 0 -11 -7 -18z m-638 -4 c-7 -2 -19 -2 -25 0 -7 3 -2 5 12 5 14
0 19 -2 13 -5z m77 -7 c0 -11 -19 -15 -25 -6 -3 5 1 10 9 10 9 0 16 -2 16 -4z
m1445 -27 c30 -17 55 -37 55 -45 0 -21 -78 -67 -104 -60 -29 8 -116 64 -116
75 0 11 80 60 98 61 7 0 37 -14 67 -31z m-1418 5 c-3 -3 -12 -4 -19 -1 -8 3
-5 6 6 6 11 1 17 -2 13 -5z m246 -11 c-29 -2 -77 -2 -105 0 -29 2 -6 3 52 3
58 0 81 -1 53 -3z m113 -18 c-8 -8 -23 -15 -33 -15 -14 0 -13 3 7 14 34 19 45
19 26 1z m94 11 c0 -2 -7 -7 -16 -10 -8 -3 -12 -2 -9 4 6 10 25 14 25 6z
m-207 -43 c-29 -2 -78 -2 -110 0 -32 2 -8 3 52 3 61 0 87 -1 58 -3z m122 -3
c-3 -5 -12 -10 -18 -10 -7 0 -6 4 3 10 19 12 23 12 15 0z m895 -26 c36 -22 60
-43 58 -51 -2 -8 -24 -26 -49 -40 l-45 -26 -59 34 c-32 19 -60 40 -62 46 -3 9
78 71 94 73 1 0 29 -16 63 -36z m-997 9 c-40 -2 -106 -2 -145 0 -40 1 -8 3 72
3 80 0 112 -2 73 -3z m1328 -25 c32 -18 59 -40 59 -48 0 -8 -22 -27 -48 -41
l-48 -27 -62 35 c-34 19 -62 41 -62 48 0 12 72 61 93 64 5 1 35 -14 68 -31z
m-482 -73 c34 -20 61 -42 61 -49 0 -7 -22 -25 -49 -40 l-49 -26 -61 35 c-34
20 -61 42 -61 49 0 9 80 64 97 66 1 0 29 -16 62 -35z m-449 21 c0 -2 -6 -9
-14 -15 -11 -9 -16 -9 -22 0 -4 8 -3 9 4 5 7 -4 12 -2 12 3 0 6 5 11 10 11 6
0 10 -2 10 -4z m781 -38 c33 -18 59 -38 59 -45 0 -12 -78 -63 -97 -63 -25 0
-123 65 -121 80 3 14 73 59 92 60 5 0 35 -15 67 -32z m329 -14 c33 -20 59 -42
57 -48 -2 -6 -24 -24 -50 -40 l-46 -28 -60 37 c-34 20 -61 43 -61 50 0 11 71
61 92 64 4 1 34 -15 68 -35z m-1000 2 c0 -3 -4 -8 -10 -11 -5 -3 -10 -1 -10 4
0 6 5 11 10 11 6 0 10 -2 10 -4z m190 -60 c30 -18 55 -38 55 -46 0 -7 -21 -26
-47 -42 l-46 -29 -61 36 c-34 20 -61 42 -61 49 0 14 75 65 95 65 6 0 35 -15
65 -33z m378 -44 c21 -13 4 -37 -44 -60 l-46 -22 -59 32 c-32 18 -59 39 -59
48 0 8 21 27 47 42 l47 26 51 -29 c27 -16 56 -33 63 -37z m283 13 c33 -21 56
-41 53 -48 -2 -7 -25 -25 -49 -39 l-45 -27 -60 35 c-33 19 -60 41 -60 49 0 13
75 65 94 65 4 0 35 -16 67 -35z m-486 -71 c73 -40 74 -51 9 -89 l-44 -26 -60
33 c-35 20 -60 40 -60 49 0 13 69 66 88 69 2 0 32 -16 67 -36z m331 -15 c32
-18 54 -37 54 -47 0 -10 -19 -28 -46 -42 l-45 -25 -57 32 c-70 38 -76 60 -25
90 50 29 56 28 119 -8z m-156 -85 c38 -23 60 -43 58 -52 -2 -8 -23 -26 -48
-40 l-46 -25 -59 34 c-33 20 -60 41 -60 49 0 10 60 55 92 69 1 1 29 -15 63
-35z"/>
<path d="M2074 5697 l-10 -54 26 15 c25 14 26 18 16 54 -6 21 -13 38 -16 38
-4 0 -11 -24 -16 -53z"/>
<path d="M1311 5266 c-7 -32 -11 -59 -9 -61 2 -2 14 4 27 14 23 17 23 20 9 61
l-14 43 -13 -57z"/>
<path d="M4862 4794 l-42 -25 1 -77 c0 -72 3 -81 42 -147 34 -56 54 -77 104
-108 l62 -39 43 24 43 23 3 75 c2 74 2 76 -45 153 -41 68 -56 83 -109 112
l-60 34 -42 -25z m113 -68 c55 -33 95 -105 95 -174 0 -41 -4 -54 -22 -66 -31
-22 -47 -20 -90 9 -48 33 -98 120 -98 173 0 32 5 44 28 61 34 26 37 26 87 -3z"/>
<path d="M4927 4663 c-34 -33 43 -142 79 -112 21 17 17 48 -12 86 -23 31 -52
42 -67 26z"/>
<path d="M1211 4702 c-6 -29 -11 -55 -11 -57 0 -9 16 -5 33 8 15 11 15 17 3
57 l-13 45 -12 -53z"/>
<path d="M2525 4686 c-18 -13 -18 -14 3 -25 29 -16 32 -14 32 14 0 28 -8 31
-35 11z"/>
<path d="M2701 4586 l-25 -14 32 -16 32 -17 0 31 c0 33 -4 35 -39 16z"/>
<path d="M2885 4486 l-20 -16 20 -16 c18 -14 20 -14 23 0 2 9 2 23 0 32 -3 14
-5 14 -23 0z"/>
<path d="M3057 4379 c-18 -10 -18 -11 0 -25 26 -19 33 -17 33 11 0 27 -6 30
-33 14z"/>
<path d="M2711 4236 c-7 -8 -11 -27 -8 -43 4 -27 4 -27 6 4 0 19 8 36 19 42 9
6 12 11 6 11 -6 0 -17 -6 -23 -14z"/>
<path d="M2502 4022 l-33 -57 29 30 c16 17 28 32 26 34 -2 2 4 10 14 17 12 9
14 16 7 23 -8 8 -21 -6 -43 -47z"/>
<path d="M2657 3735 c-31 -28 -30 -30 7 -14 14 7 23 17 19 22 -4 6 0 8 11 4
10 -4 15 -3 11 3 -9 15 -17 12 -48 -15z"/>
<path d="M2074 3673 c-17 -8 -39 -28 -48 -44 -10 -17 -36 -42 -57 -56 -37 -24
-43 -25 -75 -14 -18 7 -40 9 -46 5 -30 -18 -138 -106 -138 -112 0 -7 65 -52
74 -52 2 0 46 33 96 74 75 62 111 82 201 118 60 24 109 46 109 50 0 7 -74 49
-82 47 -2 0 -17 -7 -34 -16z"/>
<path d="M2660 3670 c-8 -5 -10 -10 -5 -10 6 0 17 5 25 10 8 5 11 10 5 10 -5
0 -17 -5 -25 -10z"/>
<path d="M2718 3667 c-16 -6 -30 -19 -34 -29 -3 -11 -13 -17 -27 -15 -13 1
-23 -4 -25 -15 -2 -13 2 -15 19 -11 19 5 21 3 16 -18 -3 -13 -3 -29 1 -35 6
-10 83 -37 87 -31 7 9 25 74 25 88 0 15 -8 19 -35 19 -19 0 -35 2 -35 5 0 3
12 17 28 30 29 26 23 29 -20 12z m32 -81 c0 -18 -15 -36 -29 -36 -23 0 -31 9
-24 26 4 12 53 21 53 10z"/>
<path d="M1950 3332 c0 -19 68 -174 72 -166 12 22 -2 77 -33 124 -32 50 -39
57 -39 42z"/>
<path d="M1652 3048 c-18 -18 -15 -52 6 -71 37 -34 94 29 62 69 -15 17 -52 18
-68 2z m64 -9 c10 -17 -13 -36 -27 -22 -12 12 -4 33 11 33 5 0 12 -5 16 -11z"/>
<path d="M1262 2853 c2 -20 9 -29 26 -31 25 -4 29 13 8 41 -20 26 -38 21 -34
-10z"/>
<path d="M1370 2799 c0 -20 21 -49 35 -49 16 0 19 18 9 44 -7 18 -44 22 -44 5z"/>
<path d="M761 4441 c-6 -30 -9 -56 -7 -58 2 -3 14 0 25 7 17 8 20 17 15 38
-17 67 -21 69 -33 13z"/>
<path d="M3977 3154 c-7 -8 11 -34 23 -34 11 0 5 33 -6 37 -6 2 -13 0 -17 -3z"/>
<path d="M4210 3019 c-13 -8 -13 -10 0 -19 21 -14 29 -12 26 5 -3 21 -10 25
-26 14z"/>
<path d="M4435 2881 c-3 -6 4 -15 15 -21 17 -9 20 -8 20 10 0 20 -24 28 -35
11z"/>
<path d="M4667 2753 c-8 -7 11 -33 24 -33 5 0 9 9 9 20 0 19 -20 27 -33 13z"/>
<path d="M3570 2630 c-9 -6 -10 -10 -3 -10 6 0 15 5 18 10 8 12 4 12 -15 0z"/>
<path d="M4900 2620 c-13 -9 -13 -11 0 -20 22 -15 30 -12 30 10 0 22 -8 25
-30 10z"/>
<path d="M3720 2491 c0 -6 5 -13 10 -16 6 -3 10 1 10 9 0 9 -4 16 -10 16 -5 0
-10 -4 -10 -9z"/>
<path d="M5125 2480 c-3 -5 -4 -10 -1 -10 2 0 11 -3 20 -6 11 -4 16 -1 16 10
0 18 -25 22 -35 6z"/>
<path d="M2083 1524 c-34 -19 -65 -38 -67 -43 -3 -4 12 -18 34 -30 l38 -21 59
35 c52 31 65 35 131 35 66 0 80 -4 134 -35 l59 -35 40 23 40 24 -72 41 -72 42
-131 0 -131 0 -62 -36z"/>
<path d="M2190 1460 c0 -5 9 -10 20 -10 11 0 20 5 20 10 0 6 -9 10 -20 10 -11
0 -20 -4 -20 -10z"/>
<path d="M2309 1460 c-11 -7 -10 -10 4 -16 10 -4 23 -2 28 3 14 14 -13 24 -32
13z"/>
<path d="M2275 1420 c-3 -5 3 -10 15 -10 12 0 18 5 15 10 -3 6 -10 10 -15 10
-5 0 -12 -4 -15 -10z"/>
<path d="M2330 1420 c0 -5 5 -10 10 -10 6 0 10 5 10 10 0 6 -4 10 -10 10 -5 0
-10 -4 -10 -10z"/>
<path d="M1898 1079 c-25 -43 -26 -224 -2 -233 9 -4 18 -5 20 -4 6 7 9 167 4
215 l-5 53 -17 -31z"/>
<path d="M1940 996 c0 -3 9 -10 20 -16 11 -6 20 -8 20 -6 0 3 -9 10 -20 16
-11 6 -20 8 -20 6z"/>
<path d="M1990 966 c0 -3 14 -12 30 -21 17 -9 30 -13 30 -11 0 3 -13 12 -30
21 -16 9 -30 13 -30 11z"/>
<path d="M1950 929 c8 -5 29 -17 45 -26 25 -13 28 -14 18 -1 -7 8 -10 17 -7
21 3 3 -3 3 -14 0 -11 -2 -23 0 -26 6 -4 6 -13 11 -19 11 -7 0 -6 -4 3 -11z"/>
<path d="M4560 1598 c-34 -46 -47 -67 -28 -47 36 40 102 129 95 129 -3 0 -32
-37 -67 -82z"/>
<path d="M4330 1390 c-42 -23 -34 -26 13 -4 l33 16 137 -80 c75 -45 137 -78
137 -74 0 7 -255 155 -274 159 -6 1 -27 -6 -46 -17z"/>
</g>
</svg>
